<svg xmlns="http://www.w3.org/2000/svg" xmlns:xlink="http://www.w3.org/1999/xlink" width="2000" zoomAndPan="magnify" viewBox="0 0 1500 1499.999933" height="2000" preserveAspectRatio="xMidYMid meet" version="1.0"><defs><g/><clipPath id="c662cacfd1"><rect x="0" width="1196" y="0" height="542"/></clipPath><clipPath id="c81e1a487c"><rect x="0" width="354" y="0" height="124"/></clipPath></defs><path fill="#000000" d="M 747 0 C 334.28125 0 0 334.28125 0 747 C 0 1159.71875 334.28125 1494 747 1494 C 1159.71875 1494 1494 1159.71875 1494 747 C 1494 334.28125 1159.71875 0 747 0 Z M 747 0 " fill-opacity="1" fill-rule="nonzero"/><g transform="matrix(1, 0, 0, 1, 153, 492)"><g clip-path="url(#c662cacfd1)"><g fill="#fefeff" fill-opacity="1"><g transform="translate(0.730097, 402.705698)"><g><path d="M 16.328125 -390.203125 L 207.890625 -240.546875 L 207.890625 -380.953125 L 397.28125 -380.953125 L 397.28125 0 L 16.328125 0 Z M 16.328125 -390.203125 "/></g></g></g><g fill="#fefeff" fill-opacity="1"><g transform="translate(413.243737, 402.705698)"><g><path d="M 280.265625 -189.9375 L 280.265625 0.546875 L 89.796875 0.546875 L 89.796875 -189.9375 L 10.890625 -189.9375 L 10.890625 -380.953125 L 354.28125 -380.953125 L 354.28125 -189.9375 Z M 280.265625 -189.9375 "/></g></g></g><g fill="#fefeff" fill-opacity="1"><g transform="translate(778.955014, 402.705698)"><g><path d="M 16.328125 -381.5 L 198.640625 -381.5 L 198.640625 -241.09375 L 214.96875 -241.09375 L 214.96875 -381.5 L 397.28125 -381.5 L 397.28125 -0.546875 L 214.96875 -0.546875 L 214.96875 -140.953125 L 198.640625 -140.953125 L 198.640625 -0.546875 L 16.328125 -0.546875 Z M 16.328125 -381.5 "/></g></g></g></g></g><g transform="matrix(1, 0, 0, 1, 964, 647)"><g clip-path="url(#c81e1a487c)"><g fill="#000000" fill-opacity="1"><g transform="translate(0.625577, 99.310877)"><g><path d="M 47.109375 -79.265625 C 60.546875 -79.265625 70.925781 -75.828125 78.25 -68.953125 C 85.570312 -62.085938 89.234375 -52.085938 89.234375 -38.953125 C 89.234375 -25.816406 85.570312 -15.8125 78.25 -8.9375 C 70.925781 -2.070312 60.546875 1.359375 47.109375 1.359375 C 33.671875 1.359375 23.304688 -2.054688 16.015625 -8.890625 C 8.734375 -15.722656 5.09375 -25.742188 5.09375 -38.953125 C 5.09375 -52.160156 8.734375 -62.179688 16.015625 -69.015625 C 23.304688 -75.847656 33.671875 -79.265625 47.109375 -79.265625 Z M 47.109375 -60.578125 C 41.742188 -60.578125 37.664062 -58.953125 34.875 -55.703125 C 32.082031 -52.460938 30.6875 -48.085938 30.6875 -42.578125 L 30.6875 -35.328125 C 30.6875 -29.816406 32.082031 -25.4375 34.875 -22.1875 C 37.664062 -18.945312 41.742188 -17.328125 47.109375 -17.328125 C 52.460938 -17.328125 56.554688 -18.945312 59.390625 -22.1875 C 62.222656 -25.4375 63.640625 -29.816406 63.640625 -35.328125 L 63.640625 -42.578125 C 63.640625 -48.085938 62.222656 -52.460938 59.390625 -55.703125 C 56.554688 -58.953125 52.460938 -60.578125 47.109375 -60.578125 Z M 47.109375 -60.578125 "/></g></g></g><g fill="#000000" fill-opacity="1"><g transform="translate(94.952372, 99.310877)"><g><path d="M 85.9375 -31.359375 C 85.9375 -20.722656 82.578125 -12.609375 75.859375 -7.015625 C 69.148438 -1.429688 59.601562 1.359375 47.21875 1.359375 C 34.832031 1.359375 25.257812 -1.429688 18.5 -7.015625 C 11.75 -12.609375 8.375 -20.722656 8.375 -31.359375 L 8.375 -77.90625 L 33.40625 -77.90625 L 33.40625 -31.703125 C 33.40625 -27.328125 34.570312 -23.835938 36.90625 -21.234375 C 39.25 -18.628906 42.648438 -17.328125 47.109375 -17.328125 C 51.554688 -17.328125 54.96875 -18.644531 57.34375 -21.28125 C 59.726562 -23.925781 60.921875 -27.398438 60.921875 -31.703125 L 60.921875 -77.90625 L 85.9375 -77.90625 Z M 85.9375 -31.359375 "/></g></g></g><g fill="#000000" fill-opacity="1"><g transform="translate(189.279166, 99.310877)"><g><path d="M 41.109375 -79.265625 C 51.066406 -79.265625 59.253906 -77.242188 65.671875 -73.203125 C 72.085938 -69.160156 75.375 -63.179688 75.53125 -55.265625 L 75.53125 -53.90625 L 52.09375 -53.90625 L 52.09375 -54.359375 C 52.09375 -56.617188 51.257812 -58.503906 49.59375 -60.015625 C 47.9375 -61.523438 45.410156 -62.28125 42.015625 -62.28125 C 38.691406 -62.28125 36.140625 -61.785156 34.359375 -60.796875 C 32.585938 -59.816406 31.703125 -58.613281 31.703125 -57.1875 C 31.703125 -55.144531 32.910156 -53.632812 35.328125 -52.65625 C 37.742188 -51.675781 41.632812 -50.65625 47 -49.59375 C 53.257812 -48.3125 58.40625 -46.972656 62.4375 -45.578125 C 66.476562 -44.179688 70.007812 -41.894531 73.03125 -38.71875 C 76.050781 -35.550781 77.597656 -31.25 77.671875 -25.8125 C 77.671875 -16.601562 74.554688 -9.769531 68.328125 -5.3125 C 62.109375 -0.863281 53.789062 1.359375 43.375 1.359375 C 31.21875 1.359375 21.757812 -0.675781 15 -4.75 C 8.25 -8.832031 4.875 -16.046875 4.875 -26.390625 L 28.53125 -26.390625 C 28.53125 -22.460938 29.550781 -19.835938 31.59375 -18.515625 C 33.632812 -17.191406 36.804688 -16.53125 41.109375 -16.53125 C 44.273438 -16.53125 46.894531 -16.867188 48.96875 -17.546875 C 51.050781 -18.234375 52.09375 -19.628906 52.09375 -21.734375 C 52.09375 -23.628906 50.941406 -25.046875 48.640625 -25.984375 C 46.335938 -26.929688 42.582031 -27.929688 37.375 -28.984375 C 31.03125 -30.347656 25.78125 -31.765625 21.625 -33.234375 C 17.476562 -34.703125 13.851562 -37.132812 10.75 -40.53125 C 7.65625 -43.9375 6.109375 -48.546875 6.109375 -54.359375 C 6.109375 -62.878906 9.410156 -69.160156 16.015625 -73.203125 C 22.628906 -77.242188 30.992188 -79.265625 41.109375 -79.265625 Z M 41.109375 -79.265625 "/></g></g></g><g fill="#000000" fill-opacity="1"><g transform="translate(271.036609, 99.310877)"><g><path d="M 8.375 -77.90625 L 75.75 -77.90625 L 75.75 -59.21875 L 33.40625 -59.21875 L 33.40625 -48.46875 L 69.640625 -48.46875 L 69.640625 -30.578125 L 33.40625 -30.578125 L 33.40625 -18.6875 L 76.546875 -18.6875 L 76.546875 0 L 8.375 0 Z M 8.375 -77.90625 "/></g></g></g></g></g></svg>